<svg width="166" height="174" xmlns="http://www.w3.org/2000/svg" xmlns:xlink="http://www.w3.org/1999/xlink" overflow="hidden"><defs><clipPath id="clip0"><rect x="69" y="77" width="166" height="174"/></clipPath></defs><g clip-path="url(#clip0)" transform="translate(-69 -77)"><path d="M233 95 232.579 95.5964 232 96 233 95Z" fill="#91CDEB" fill-rule="evenodd"/><path d="M152 77C197.287 77 234 83.9397 234 92.5 234 93.035 233.857 93.5637 233.577 94.0848L232.638 95.2471 231.916 95.8786 227.556 98.5333C215.108 104.097 185.966 108 152 108 106.713 108 70 101.06 70 92.5 70 83.9397 106.713 77 152 77Z" fill="#91CDEB" fill-rule="evenodd"/><path d="M152.418 130C163.798 130 174.639 130.42 184.499 131.179L191 131.821 157.624 159.904 152.418 160C106.9 160 70 153.284 70 145 70 136.716 106.9 130 152.418 130Z" fill="#91CDEB" fill-rule="evenodd"/><path d="M197.123 132 198.013 132.091C219.725 134.856 234 139.54 234 144.851 234 152.288 206.021 158.492 168.827 159.927L165 160 197.123 132Z" fill="#F3D6AB" fill-rule="evenodd"/><path d="M152.032 180C197.302 180 234 186.94 234 195.5 234 204.06 197.302 211 152.032 211 140.715 211 129.933 210.566 120.127 209.782L109 208.64 141.53 180.2 152.032 180Z" fill="#F3D6AB" fill-rule="evenodd"/><path d="M134 180 102.62 207 94.0473 205.684C79.1897 202.919 70 199.099 70 194.879 70 188.55 90.6766 183.12 120.145 180.8L134 180Z" fill="#91CDEB" fill-rule="evenodd"/><path d="M70 98 72.1878 98 73.6811 99.862C80.8581 104.212 97.9673 107.737 120.008 109.494 129.804 110.275 140.574 110.707 151.879 110.707 181.555 110.707 207.543 107.731 221.904 103.276L223 102.86 173.226 146.147 159.505 146.9C126.329 147.656 90.611 144.181 70 134.21L70 98Z" fill="#51B0DF" fill-rule="evenodd"/><path d="M234 100 234 134.452C226.125 139.682 206.83 143.804 183.602 145.857L181 146 234 100Z" fill="#E6A74A" fill-rule="evenodd"/><path d="M70 151 72.1849 151 73.6762 152.866C80.8436 157.226 97.9298 160.759 119.941 162.52 129.724 163.303 140.479 163.736 151.769 163.736L153 163.716 113.721 198 109.987 197.683C94.3551 195.658 80.2917 192.289 70 187.292L70 151Z" fill="#51B0DF" fill-rule="evenodd"/><path d="M232.533 151 234 151 234 187.21C220.866 195.897 175.989 201.515 134.051 199.638L120 198.458 160.372 163.563 166.199 163.466C199.333 162.357 225.605 157.537 232.327 151.383L232.533 151Z" fill="#E6A74A" fill-rule="evenodd"/><path d="M70 201 72.1659 201 73.6444 202.837C77.1972 204.982 83.2084 206.924 91.0589 208.547L99 209.87 70 235 70 201Z" fill="#51B0DF" fill-rule="evenodd"/><path d="M232.534 201 234 201 234 237.21C214.315 250.24 123.263 256.366 77.8092 240.649L73 238.691 105.05 210.967 119.638 212.494C129.487 213.275 140.315 213.707 151.681 213.707 191.462 213.707 224.652 208.416 232.328 201.383L232.534 201Z" fill="#E6A74A" fill-rule="evenodd"/></g></svg>